<svg xmlns="http://www.w3.org/2000/svg" xmlns:xlink="http://www.w3.org/1999/xlink" width="101" height="123" viewBox="0 0 101 123"><defs><path id="3twva" d="M1067.4 1531.6c-3.92-3-5.88-7.13-5.88-12.37 0-5.12 1.96-9.19 5.87-12.2 3.92-3 9.23-4.51 15.94-4.51 6.83 0 12.22 1.5 16.2 4.51 3.97 3.01 5.95 7.08 5.95 12.2 0 5.13-1.98 9.22-5.96 12.29-3.97 3.06-9.36 4.6-16.19 4.6-6.71 0-12.02-1.51-15.94-4.52zm29.36-72.78c3.35 2.61 5.03 6.2 5.03 10.78 0 4.45-1.68 7.96-5.03 10.52-3.36 2.57-7.83 3.85-13.43 3.85s-10.01-1.28-13.25-3.85c-3.25-2.56-4.87-6.07-4.87-10.52 0-4.57 1.65-8.17 4.95-10.78 3.3-2.62 7.7-3.93 13.17-3.93 5.6 0 10.07 1.3 13.43 3.93zm28.52 23.56a27.39 27.39 0 0 0 3.53-13.95c0-6.8-1.9-12.7-5.71-17.72-3.8-5.01-9.14-8.89-16.02-11.62-6.88-2.73-14.8-4.09-23.75-4.09-8.84 0-16.67 1.36-23.49 4.1-6.82 2.72-12.14 6.6-15.94 11.61-3.8 5.01-5.7 10.92-5.7 17.72 0 5.23 1.17 9.88 3.52 13.95a28.6 28.6 0 0 0 10.07 10.11c-5.7 2.9-10.1 6.69-13.18 11.37-3.07 4.68-4.61 10.08-4.61 16.2 0 7.25 2.04 13.57 6.12 18.98 4.09 5.4 9.85 9.58 17.29 12.53 7.44 2.95 16.08 4.43 25.92 4.43 9.85 0 18.52-1.48 26.01-4.43 7.5-2.95 13.31-7.13 17.45-12.53 4.14-5.4 6.21-11.73 6.21-18.97 0-6.13-1.54-11.53-4.61-16.21-3.08-4.68-7.53-8.47-13.34-11.37a28.22 28.22 0 0 0 10.23-10.1z"/></defs><g><g transform="translate(-1033 -1434)"><use fill="#fff" xlink:href="#3twva"/><use fill="#fff" fill-opacity="0" stroke="#000" stroke-miterlimit="50" xlink:href="#3twva"/></g></g></svg>